<svg id="Camada_1" data-name="Camada 1" xmlns="http://www.w3.org/2000/svg" xmlns:xlink="http://www.w3.org/1999/xlink" viewBox="0 0 519.3 607.23">
    <defs>
        <style>.cls-1,.cls-2,.cls-3{fill:none;stroke-width:3px;}.cls-1{stroke:url(#Gradiente_sem_nome_6);}.cls-2{stroke:url(#Gradiente_sem_nome_6-2);}.cls-3{stroke:url(#Gradiente_sem_nome_6-3);}</style>
        <linearGradient id="Gradiente_sem_nome_6" x1="779.66" y1="534.56" x2="701.4" y2="438.83" gradientTransform="matrix(1, 0, 0, -1, 89.04, 606.9)" gradientUnits="userSpaceOnUse">
            <stop offset="0" stop-color="#6f77a6"/>
            <stop offset="1" stop-color="#3b568c"/>
        </linearGradient>
        <linearGradient id="Gradiente_sem_nome_6-2" x1="905.49" y1="302.45" x2="842.65" y2="313.53" xlink:href="#Gradiente_sem_nome_6"/>
        <linearGradient id="Gradiente_sem_nome_6-3" x1="697.78" y1="549.77" x2="664.91" y2="449.58" xlink:href="#Gradiente_sem_nome_6"/>
    </defs>
    <title>Linhas</title>
    <path class="cls-1" d="M684.5-.5c-36-2-50,16-31.52,73.6,29.36,99,161,119.13,267.62,122.14,56.9-2.74,56.9-2.74,98.9,16.26-.2-.36,0-208,0-208Z" transform="translate(-507.11 2.15)"/>
    <path class="cls-2" d="M1019.5-.5c-46,1,2,1-46,1-28-1,3.16,100.52,31.81,199.32s19.38,164.88,12.48,219.66-49.67,60-57,124.59c-5.88,51.66-20.87,60.52-26.27,59.43l85-1Z" transform="translate(-507.11 2.15)"/>
    <path class="cls-3" d="M542.5-.5c-32.33,29.67-49.64,55.25-14.44,100.05,44,56,137,38,209,15s119-10,158,0,41,53,87,64c36.8,8.8,38.44,21.62,37.44,26.95V-.5Z" transform="translate(-507.11 2.15)"/>
</svg>