<svg width="1200" height="225" viewBox="0 0 1230 150" fill="none" xmlns="http://www.w3.org/2000/svg">
<path d="M0 0L25.625 16.0714C51.25 32.1429 102.5 64.2857 153.75 91.1049C205 117.522 256.25 139.621 307.5 128.571C358.75 117.522 410 75.3348 461.25 69.6094C512.5 64.2857 563.75 96.4286 615 107.176C666.25 117.522 717.5 107.478 768.75 85.6808C820 64.2857 871.25 32.1429 922.5 21.3951C973.75 11.0491 1025 21.0938 1076.25 32.1429C1127.5 43.192 1178.75 53.2366 1204.38 58.9621L1230 64.2857V225H1204.38C1178.75 225 1127.5 225 1076.25 225C1025 225 973.75 225 922.5 225C871.25 225 820 225 768.75 225C717.5 225 666.25 225 615 225C563.75 225 512.5 225 461.25 225C410 225 358.75 225 307.5 225C256.25 225 205 225 153.75 225C102.5 225 51.25 225 25.625 225H0V0Z" fill="#F5F6F7"/>
</svg>
