<svg width="1200" height="225" viewBox="0 0 1230 150"  fill="none" xmlns="http://www.w3.org/2000/svg">
<path d="M0 0L25.625 16.886C51.25 33.772 102.5 67.544 153.75 95.7226C205 123.479 256.25 146.697 307.5 135.088C358.75 123.479 410 79.1532 461.25 73.1375C512.5 67.544 563.75 101.316 615 112.609C666.25 123.479 717.5 112.925 768.75 90.0235C820 67.544 871.25 33.772 922.5 22.4795C973.75 11.6091 1025 22.1629 1076.25 33.772C1127.5 45.3811 1178.75 55.9349 1204.38 61.9505L1230 67.544V236.404L1204.38 236.404C1178.75 236.404 1127.5 236.404 1076.25 236.404C1025 236.404 973.75 236.404 922.5 236.404C871.25 236.404 820 236.404 768.75 236.404C717.5 236.404 666.25 236.404 615 236.404C563.75 236.404 512.5 236.404 461.25 236.404C410 236.404 358.75 236.404 307.5 236.404C256.25 236.404 205 236.404 153.75 236.404C102.5 236.404 51.25 236.404 25.625 236.404H0L0 0Z" fill="url(#paint0_linear)"/>
<path d="M0 0L25.625 16.886C51.25 33.772 102.5 67.544 153.75 95.7226C205 123.479 256.25 146.697 307.5 135.088C358.75 123.479 410 79.1532 461.25 73.1375C512.5 67.544 563.75 101.316 615 112.609C666.25 123.479 717.5 112.925 768.75 90.0235C820 67.544 871.25 33.772 922.5 22.4795C973.75 11.6091 1025 22.1629 1076.25 33.772C1127.5 45.3811 1178.75 55.9349 1204.38 61.9505L1230 67.544V236.404L1204.38 236.404C1178.75 236.404 1127.5 236.404 1076.25 236.404C1025 236.404 973.75 236.404 922.5 236.404C871.25 236.404 820 236.404 768.75 236.404C717.5 236.404 666.25 236.404 615 236.404C563.75 236.404 512.5 236.404 461.25 236.404C410 236.404 358.75 236.404 307.5 236.404C256.25 236.404 205 236.404 153.75 236.404C102.5 236.404 51.25 236.404 25.625 236.404H0L0 0Z" fill="url(#paint1_linear)"/>
<defs>
<linearGradient id="paint0_linear" x1="615" y1="136.143" x2="615" y2="236.404" gradientUnits="userSpaceOnUse">
<stop stop-color="#F3F4F5"/>
<stop offset="1" stop-color="#F3F4F5" stop-opacity="0.85"/>
</linearGradient>
<linearGradient id="paint1_linear" x1="558" y1="-584" x2="566" y2="236" gradientUnits="userSpaceOnUse">
<stop stop-color="#78CFDE"/>
<stop offset="0.0001" stop-color="#78CFDE"/>
<stop offset="0.998892" stop-color="#45818E"/>
</linearGradient>
</defs>
</svg>
